<svg xmlns="http://www.w3.org/2000/svg" width="130.665" height="64.209" viewBox="0 0 130.665 64.209"><defs><style>.a{fill:#e0007a;}</style></defs><g transform="translate(-12.991 -13.571)"><rect class="a" width="13.002" height="13.001" transform="translate(12.991 43.106)"/><rect class="a" width="13.002" height="13.001" transform="translate(52.64 43.106)"/><rect class="a" width="13" height="13.001" transform="translate(91.646 43.106)"/><rect class="a" width="13" height="13.001" transform="translate(130.656 43.106)"/><g transform="translate(12.991 13.571)"><path class="a" d="M65,13.571H13.635l-.644,22.656,3.406.59q.952-10.015,5.257-14.866c3.02-3.382,7.181-5.147,12.527-5.3v47.4c0,4.137-.579,6.829-1.787,8.065q-1.54,1.59-5.21,1.949c-.726.058-1.964.093-3.716.093V77.78h31.7V74.155c-1.752,0-2.99-.035-3.716-.093q-3.67-.362-5.208-1.949c-1.21-1.236-1.795-3.928-1.795-8.065v-47.4c5.348.152,9.509,1.917,12.533,5.3q4.3,4.85,5.255,14.866l3.408-.59Z" transform="translate(-12.991 -13.571)"/></g></g></svg>